<svg xmlns="http://www.w3.org/2000/svg" version="1.1" xmlns:xlink="http://www.w3.org/1999/xlink" xmlns:svgjs="http://svgjs.com/svgjs" width="512" height="512" x="0" y="0" viewBox="0 0 24 24" style="enable-background:new 0 0 512 512" xml:space="preserve" class=""><g><g fill="#000"><path d="M9.04 2.505c-.816-.202-1.836-.404-2.652-.404-.817 0-1.837.202-2.653.404-.715.101-1.225.707-1.327 1.414C2.306 4.727 2 6.344 2 7.455s.204 2.525.306 3.535c.102.707.612 1.313 1.327 1.414.714.202 1.836.303 2.653.303.816 0 1.836-.202 2.653-.303.714-.1 1.224-.707 1.326-1.414.204-1.01.306-2.424.306-3.535s-.204-2.728-.306-3.536a1.42 1.42 0 0 0-1.224-1.414zM20.265 11.596c-.714-.202-1.836-.303-2.653-.303-.816 0-1.836.202-2.653.303-.714.1-1.224.707-1.326 1.414-.204 1.01-.306 2.424-.306 3.535s.204 2.526.306 3.536c.102.707.612 1.313 1.326 1.414.715.202 1.837.303 2.653.303.817 0 1.837-.202 2.653-.303.715-.101 1.225-.707 1.327-1.414.204-1.01.306-2.424.306-3.536s-.102-2.525-.306-3.535c-.102-.707-.612-1.313-1.327-1.414zM9.143 15.636c-.816-.202-1.837-.303-2.755-.303-.919 0-1.939.202-2.755.303-.613.101-1.123.606-1.327 1.212-.204.708-.306 1.314-.306 1.819 0 .505.102 1.01.306 1.818.204.606.714 1.01 1.327 1.212.816.202 1.836.303 2.755.303.918 0 1.939-.202 2.755-.303.612-.101 1.122-.606 1.326-1.212.205-.707.307-1.313.307-1.818 0-.505-.102-1.01-.307-1.819-.204-.707-.714-1.11-1.326-1.212zM14.857 8.364c.817.202 1.837.303 2.755.303.919 0 1.939-.202 2.755-.303.613-.101 1.123-.606 1.327-1.212.204-.708.306-1.314.306-1.819s-.102-1.01-.306-1.818c-.204-.606-.714-1.01-1.327-1.212C19.551 2.101 18.531 2 17.612 2c-.918 0-1.938.202-2.755.303-.612.101-1.122.606-1.326 1.212-.204.707-.306 1.313-.306 1.818s.102 1.01.306 1.819c.204.707.714 1.11 1.326 1.212z" fill="#FFFFFF" data-original="#000000" class=""></path></g></g></svg>