<svg xmlns="http://www.w3.org/2000/svg" version="1.1" xmlns:xlink="http://www.w3.org/1999/xlink" xmlns:svgjs="http://svgjs.com/svgjs" width="512" height="512" x="0" y="0" viewBox="0 0 128 128" style="enable-background:new 0 0 512 512" xml:space="preserve" class=""><g><path d="M64 4C30.916 4 4 30.916 4 64s26.916 60 60 60 60-26.916 60-60S97.084 4 64 4zm47.989 40H90.503c-1.887-12.155-5.474-22.32-10.23-29.355C94.606 19.383 106.204 30.172 111.989 44zM84 64c0 4.191-.213 8.188-.577 12H44.577C44.213 72.188 44 68.191 44 64s.213-8.188.577-12h38.845c.365 3.812.578 7.809.578 12zm-20 52c-7.222 0-15.059-12.473-18.369-32h36.738c-3.31 19.527-11.147 32-18.369 32zM45.631 44C48.941 24.473 56.778 12 64 12s15.059 12.473 18.369 32zm2.096-29.355c-4.756 7.036-8.344 17.2-10.23 29.355H16.011c5.785-13.828 17.383-24.617 31.716-29.355zM13.453 52h23.081C36.196 55.861 36 59.859 36 64s.196 8.139.535 12H13.453C12.537 72.14 12 68.136 12 64s.537-8.14 1.453-12zm2.558 32h21.485c1.887 12.155 5.474 22.32 10.23 29.355C33.393 108.617 21.796 97.828 16.011 84zm64.262 29.355c4.756-7.036 8.344-17.2 10.23-29.355h21.485c-5.784 13.828-17.381 24.617-31.715 29.355zM114.547 76H91.465c.339-3.861.535-7.859.535-12s-.196-8.139-.535-12h23.081c.917 3.86 1.453 7.864 1.453 12s-.536 8.14-1.452 12z" fill="#FFFFFF" data-original="#000000" class=""></path></g></svg>