<svg xmlns="http://www.w3.org/2000/svg" version="1.1" xmlns:xlink="http://www.w3.org/1999/xlink" xmlns:svgjs="http://svgjs.com/svgjs" width="512" height="512" x="0" y="0" viewBox="0 0 32 32" style="enable-background:new 0 0 512 512" xml:space="preserve" class=""><g><g fill="#000"><path fill-rule="evenodd" d="M9 9a7 7 0 1 1 14 0v7a7 7 0 1 1-14 0zm7-5a5 5 0 0 0-5 5v7a5 5 0 0 0 10 0V9a5 5 0 0 0-5-5z" clip-rule="evenodd" fill="#000000" data-original="#000000"></path><path d="M7 13a1 1 0 0 1 1 1v2a8 8 0 1 0 16 0v-2a1 1 0 1 1 2 0v2c0 5.185-3.947 9.449-9 9.95V29a1 1 0 1 1-2 0v-3.05C9.947 25.45 6 21.186 6 16v-2a1 1 0 0 1 1-1z" fill="#000000" data-original="#000000"></path></g></g></svg>